<svg version="1.1" xmlns="http://www.w3.org/2000/svg" xmlns:xlink="http://www.w3.org/1999/xlink" xmlns:a="http://ns.adobe.com/AdobeSVGViewerExtensions/3.0/" x="0px" y="0px" width="90" height="28.1" viewBox="0 0 90 28.1" style="enable-background:new 0 0 90 28.1;" xml:space="preserve">
<title>FITE</title>
<defs> </defs>
<g>
<g>
<path class="svg-fitelogo" d="M26.3,11.3H14l1.4-5.1c0.1-0.5,0.5-0.7,1.3-0.7h11.3L29.3,0H13.2c-1.3,0-2.5,0.3-3.8,0.8
             C7.8,1.5,6.9,2.5,6.6,3.8L0,28.1h9.5l3-11.3h12.3L26.3,11.3z M31.3,0l-7.5,28.1h9.5L40.8,0H31.3z M67.1,0H41.8l-1.4,5.5h6.9
             c0.6,0,0.9,0.2,0.9,0.6c0,0,0,0.1,0,0.1l-5.9,21.9h9.5l5.9-21.9c0.1-0.5,0.5-0.7,1.3-0.7h6.9L67.1,0z M77.3,5.5h11.3L90,0H73.8
             c-1.3,0-2.5,0.3-3.8,0.8c-1.6,0.7-2.5,1.7-2.8,2.9l-5.5,20.6c0,0.1-0.1,0.3-0.1,0.4c0,0.1,0,0.3,0,0.4c0,1,0.6,1.8,1.7,2.3
             c0.9,0.4,1.9,0.7,3,0.7h16.2l1.5-5.5H72.7c-0.6,0-0.9-0.2-0.9-0.6v-0.1l1.4-5.2h12.3l1.5-5.5H74.7L76,6.2
             C76.2,5.7,76.6,5.5,77.3,5.5z" fill="#e61414"></path>
</g>
</g>
</svg>